<?xml version="1.0" encoding="UTF-8"?>
<svg version="1.1" xmlns="http://www.w3.org/2000/svg" width="1024" height="1024">
<path d="M0 0 C337.92 0 675.84 0 1024 0 C1024 337.92 1024 675.84 1024 1024 C686.08 1024 348.16 1024 0 1024 C0 686.08 0 348.16 0 0 Z " fill="#000000" transform="translate(0,0)"/>
<path d="M0 0 C56.1 0 112.2 0 170 0 C170 10.89 170 21.78 170 33 C172.44277344 32.98839844 174.88554687 32.97679687 177.40234375 32.96484375 C179.75870636 32.95705316 182.11506756 32.95097641 184.47143555 32.94506836 C186.11369464 32.94002826 187.75594923 32.93319622 189.39819336 32.92456055 C191.75375479 32.91248074 194.10925709 32.90676861 196.46484375 32.90234375 C197.20339096 32.89718246 197.94193817 32.89202118 198.7028656 32.88670349 C200.46898088 32.8865075 202.23497146 32.93805281 204 33 C205 34 205 34 205.11352539 37.14282227 C205.11327441 38.53402696 205.10771709 39.92523791 205.09765625 41.31640625 C205.09664917 41.96411987 205.09564209 42.6118335 205.09460449 43.2791748 C205.08935843 45.70696779 205.07539725 48.13473561 205.0625 50.5625 C205.041875 55.986875 205.02125 61.41125 205 67 C217.21 67 229.42 67 242 67 C242 112.54 242 158.08 242 205 C229.79 205 217.58 205 205 205 C205.03959995 215.81533243 205.03959995 215.81533243 205.09008789 226.63061523 C205.09300716 227.98160727 205.09555569 229.33260019 205.09765625 230.68359375 C205.10277222 231.39100708 205.10788818 232.09842041 205.11315918 232.82727051 C205.11347032 234.55192617 205.06225761 236.27646838 205 238 C204 239 204 239 200.76538086 239.11352539 C199.33185874 239.11336631 197.89833088 239.10767407 196.46484375 239.09765625 C195.33496788 239.09553383 195.33496788 239.09553383 194.18226624 239.09336853 C191.7673044 239.08775376 189.35243399 239.07519883 186.9375 239.0625 C185.30403779 239.0574869 183.67057414 239.05292366 182.03710938 239.04882812 C178.02470415 239.03777954 174.01236759 239.02050506 170 239 C170.00523682 239.99443115 170.01047363 240.9888623 170.01586914 242.01342773 C170.03392041 245.69033921 170.04543246 249.36724675 170.05493164 253.04418945 C170.05997157 254.63794614 170.0668035 256.23169819 170.07543945 257.82543945 C170.08751999 260.11150253 170.09323155 262.39750467 170.09765625 264.68359375 C170.10281754 265.40026718 170.10797882 266.11694061 170.11329651 266.85533142 C170.11349263 268.57063672 170.06192007 270.28581266 170 272 C169 273 169 273 166.23761654 273.12304783 C164.99227422 273.12212604 163.7469319 273.12120424 162.46385193 273.12025452 C161.77455093 273.12111053 161.08524994 273.12196655 160.37506104 273.12284851 C158.04094925 273.12451341 155.70690805 273.11896443 153.37280273 273.11352539 C151.68060083 273.11321929 149.98839879 273.11335214 148.29619694 273.11389065 C143.74849197 273.11411719 139.20081311 273.10830495 134.65311432 273.10128021 C130.39182957 273.09560174 126.1305513 273.09531799 121.8692627 273.09460449 C109.39200498 273.089349 96.91475216 273.07538796 84.4375 273.0625 C42.6409375 273.0315625 42.6409375 273.0315625 0 273 C0 182.91 0 92.82 0 0 Z " fill="#FCFCFC" transform="translate(240,376)"/>
<path d="M0 0 C22.44 0 44.88 0 68 0 C68 33.66 68 67.32 68 102 C79.22 102 90.44 102 102 102 C102 90.78 102 79.56 102 68 C113.55 68 125.1 68 137 68 C137 56.78 137 45.56 137 34 C148.22 34 159.44 34 171 34 C171 22.78 171 11.56 171 0 C204.33 0 237.66 0 272 0 C272 11.22 272 22.44 272 34 C261.11 34 250.22 34 239 34 C239 45.22 239 56.44 239 68 C227.45 68 215.9 68 204 68 C204 79.22 204 90.44 204 102 C192.78 102 181.56 102 170 102 C170 124.44 170 146.88 170 170 C181.22 170 192.44 170 204 170 C204 181.22 204 192.44 204 204 C215.55 204 227.1 204 239 204 C239 215.22 239 226.44 239 238 C249.89 238 260.78 238 272 238 C272 249.22 272 260.44 272 272 C238.67 272 205.34 272 171 272 C171 260.78 171 249.56 171 238 C159.78 238 148.56 238 137 238 C136.67 227.11 136.34 216.22 136 205 C119.17 204.505 119.17 204.505 102 204 C102 192.78 102 181.56 102 170 C90.78 170 79.56 170 68 170 C68 203.66 68 237.32 68 272 C45.56 272 23.12 272 0 272 C0 182.24 0 92.48 0 0 Z " fill="#FDFDFD" transform="translate(512,376)"/>
<path d="M0 0 C34.98 0 69.96 0 106 0 C106 44.88 106 89.76 106 136 C80.0434375 136.0309375 80.0434375 136.0309375 53.5625 136.0625 C48.08986572 136.071604 42.61723145 136.08070801 36.97875977 136.09008789 C30.3182373 136.09460449 30.3182373 136.09460449 27.20445251 136.09544373 C25.02032773 136.09698367 22.83620381 136.10050963 20.65208435 136.10557556 C17.35210686 136.11284988 14.05218152 136.11390752 10.75219727 136.11352539 C9.77211732 136.1171235 8.79203737 136.12072161 7.78225803 136.12442875 C6.45773829 136.1223625 6.45773829 136.1223625 5.10646057 136.12025452 C3.9463841 136.12163721 3.9463841 136.12163721 2.76287174 136.12304783 C1 136 1 136 0 135 C-0.09629597 133.25373476 -0.12187539 131.50354095 -0.12025452 129.75462341 C-0.12162918 128.61733795 -0.12300385 127.48005249 -0.12442017 126.30830383 C-0.12082489 125.04954941 -0.11722961 123.79079498 -0.11352539 122.49389648 C-0.11367142 121.17701843 -0.11381744 119.86014038 -0.1139679 118.50335693 C-0.11425587 114.88161732 -0.10835924 111.25991054 -0.10139394 107.63817859 C-0.0951603 103.85718116 -0.09455659 100.07618305 -0.09336853 96.29518127 C-0.09025524 89.1305571 -0.08204189 81.9659481 -0.07201904 74.80133063 C-0.05877255 65.12314369 -0.05335797 55.44495263 -0.04751682 45.76675892 C-0.038102 30.51116123 -0.01818307 15.25559559 0 0 Z " fill="#000000" transform="translate(308,444)"/>
<path d="M0 0 C34.98 0 69.96 0 106 0 C106 44.88 106 89.76 106 136 C80.0434375 136.0309375 80.0434375 136.0309375 53.5625 136.0625 C48.08986572 136.071604 42.61723145 136.08070801 36.97875977 136.09008789 C30.3182373 136.09460449 30.3182373 136.09460449 27.20445251 136.09544373 C25.02032773 136.09698367 22.83620381 136.10050963 20.65208435 136.10557556 C17.35210686 136.11284988 14.05218152 136.11390752 10.75219727 136.11352539 C9.77211732 136.1171235 8.79203737 136.12072161 7.78225803 136.12442875 C6.45773829 136.1223625 6.45773829 136.1223625 5.10646057 136.12025452 C3.9463841 136.12163721 3.9463841 136.12163721 2.76287174 136.12304783 C1 136 1 136 0 135 C-0.09629597 133.25373476 -0.12187539 131.50354095 -0.12025452 129.75462341 C-0.12162918 128.61733795 -0.12300385 127.48005249 -0.12442017 126.30830383 C-0.12082489 125.04954941 -0.11722961 123.79079498 -0.11352539 122.49389648 C-0.11367142 121.17701843 -0.11381744 119.86014038 -0.1139679 118.50335693 C-0.11425587 114.88161732 -0.10835924 111.25991054 -0.10139394 107.63817859 C-0.0951603 103.85718116 -0.09455659 100.07618305 -0.09336853 96.29518127 C-0.09025524 89.1305571 -0.08204189 81.9659481 -0.07201904 74.80133063 C-0.05877255 65.12314369 -0.05335797 55.44495263 -0.04751682 45.76675892 C-0.038102 30.51116123 -0.01818307 15.25559559 0 0 Z M4 4 C4 45.91 4 87.82 4 131 C36.01 131 68.02 131 101 131 C101 89.09 101 47.18 101 4 C68.99 4 36.98 4 4 4 Z " fill="#3F3E3D" transform="translate(308,444)"/>
<path d="M0 0 C0.33 0 0.66 0 1 0 C1 89.76 1 179.52 1 272 C23.44 272 45.88 272 69 272 C69 238.34 69 204.68 69 170 C80.22 170 91.44 170 103 170 C103 181.22 103 192.44 103 204 C114.14443325 203.96039927 114.14443325 203.96039927 125.28881836 203.90991211 C126.68082605 203.90699286 128.07283459 203.90444433 129.46484375 203.90234375 C130.19384888 203.89722778 130.922854 203.89211182 131.6739502 203.88684082 C133.44970076 203.88652989 135.22534208 203.93771485 137 204 C138 205 138 205 138.11352539 208.14282227 C138.11327441 209.53402696 138.10771709 210.92523791 138.09765625 212.31640625 C138.09664917 212.96411987 138.09564209 213.6118335 138.09460449 214.2791748 C138.08935843 216.70696779 138.07539725 219.13473561 138.0625 221.5625 C138.041875 226.986875 138.02125 232.41125 138 238 C149.22 238 160.44 238 172 238 C172 249.22 172 260.44 172 272 C205.33 272 238.66 272 273 272 C273 272.33 273 272.66 273 273 C272.03755875 273.01030746 271.07511749 273.02061493 270.08351135 273.03123474 C261.03332912 273.12880019 251.98321823 273.23151783 242.9331522 273.33933926 C238.27992231 273.39461007 233.62668619 273.44803658 228.97338867 273.49731445 C224.48649883 273.54489685 219.99968788 273.59723717 215.51289177 273.65294075 C213.79721975 273.67339216 212.08152607 273.69210053 210.36581612 273.70907402 C207.97109231 273.73305665 205.57651898 273.76311912 203.18188477 273.79467773 C202.46547318 273.8004332 201.74906158 273.80618866 201.01094055 273.81211853 C197.72243051 273.58238175 197.72243051 273.58238175 195 275 C193.38916255 275.0991918 191.77404356 275.1307982 190.16015625 275.1328125 C189.17982422 275.13410156 188.19949219 275.13539063 187.18945312 275.13671875 C186.15755859 275.13285156 185.12566406 275.12898438 184.0625 275.125 C183.03447266 275.12886719 182.00644531 275.13273437 180.94726562 275.13671875 C179.96564453 275.13542969 178.98402344 275.13414062 177.97265625 275.1328125 C177.06781494 275.13168457 176.16297363 275.13055664 175.23071289 275.12939453 C173 275 173 275 171 274 C171 262.45 171 250.9 171 239 C159.78 239 148.56 239 137 239 C136.67 236.69 136.34 234.38 136 232 C135.67 233.65 135.34 235.3 135 237 C134.67 237 134.34 237 134 237 C133.67 227.76 133.34 218.52 133 209 C123.1 208.67 113.2 208.34 103 208 C103 207.67 103 207.34 103 207 C104.98 206.67 106.96 206.34 109 206 C107.081875 206.0309375 107.081875 206.0309375 105.125 206.0625 C101.25 206.125 101.25 206.125 99 205 C99 194.77 99 184.54 99 174 C90.42 174 81.84 174 73 174 C73 207 73 240 73 274 C72.01 274.33 71.02 274.66 70 275 C70 275.66 70 276.32 70 277 C47.23 277 24.46 277 1 277 C1 276.34 1 275.68 1 275 C0.01 275 -0.98 275 -2 275 C-2 274.34 -2 273.68 -2 273 C-1.34 273 -0.68 273 0 273 C0 182.91 0 92.82 0 0 Z " fill="#3F3F40" transform="translate(511,376)"/>
<path d="M0 0 C1.32 0 2.64 0 4 0 C4 9.9 4 19.8 4 30 C14.89 30 25.78 30 37 30 C37 30.66 37 31.32 37 32 C38.32 32.66 39.64 33.32 41 34 C41 78.88 41 123.76 41 170 C40.34 170 39.68 170 39 170 C38.67 171.32 38.34 172.64 38 174 C26.78 174 15.56 174 4 174 C4 184.23 4 194.46 4 205 C2.68 205.33 1.36 205.66 0 206 C0 206.99 0 207.98 0 209 C-10.23 209 -20.46 209 -31 209 C-31 218.57 -31 228.14 -31 238 C-31.66 238.33 -32.32 238.66 -33 239 C-32.99214478 237.55379272 -32.99214478 237.55379272 -32.98413086 236.07836914 C-32.96607882 232.51327436 -32.95456726 228.94818364 -32.94506836 225.38305664 C-32.9400286 223.83780234 -32.9331968 222.29255284 -32.92456055 220.74731445 C-32.91247924 218.53074971 -32.90676827 216.31424782 -32.90234375 214.09765625 C-32.89718246 213.4028566 -32.89202118 212.70805695 -32.88670349 211.99220276 C-32.88650723 210.3277067 -32.93810871 208.66334501 -33 207 C-33.33 206.67 -33.66 206.34 -34 206 C-34 216.89 -34 227.78 -34 239 C-34.66 238.67 -35.32 238.34 -36 238 C-35.67 227.11 -35.34 216.22 -35 205 C-23.78 204.67 -12.56 204.34 -1 204 C-0.67 193.11 -0.34 182.22 0 171 C12.21 171 24.42 171 37 171 C37 125.46 37 79.92 37 33 C24.79 33 12.58 33 0 33 C0 22.11 0 11.22 0 0 Z " fill="#191818" transform="translate(445,410)"/>
<path d="M0 0 C0.66 0 1.32 0 2 0 C2.51046875 1.17755859 2.51046875 1.17755859 3.03125 2.37890625 C8.05320028 13.26425062 13.78827324 18.82155554 25 23 C25 23.66 25 24.32 25 25 C24.21496094 25.3403125 23.42992187 25.680625 22.62109375 26.03125 C11.73574938 31.05320028 6.17844446 36.78827324 2 48 C1.34 48 0.68 48 0 48 C-0.3403125 47.21496094 -0.680625 46.42992187 -1.03125 45.62109375 C-6.05320028 34.73574938 -11.78827324 29.17844446 -23 25 C-23 24.34 -23 23.68 -23 23 C-22.21496094 22.6596875 -21.42992187 22.319375 -20.62109375 21.96875 C-9.73574938 16.94679972 -4.17844446 11.21172676 0 0 Z " fill="#4B4B4B" transform="translate(903,880)"/>
<path d="M0 0 C0.33 0 0.66 0 1 0 C1 90.09 1 180.18 1 273 C23.77 273 46.54 273 70 273 C70 239.34 70 205.68 70 171 C76.27 171 82.54 171 89 171 C89 171.33 89 171.66 89 172 C83.11088859 173.02419329 78.18084076 173 72 173 C72.33 206.33 72.66 239.66 73 274 C72.01 274.33 71.02 274.66 70 275 C70 275.66 70 276.32 70 277 C47.23 277 24.46 277 1 277 C1 276.34 1 275.68 1 275 C0.01 275 -0.98 275 -2 275 C-2 274.34 -2 273.68 -2 273 C-1.34 273 -0.68 273 0 273 C0 182.91 0 92.82 0 0 Z " fill="#3F3E3E" transform="translate(511,376)"/>
<path d="M0 0 C33 0 66 0 100 0 C100 42.9 100 85.8 100 130 C67 130 34 130 0 130 C0 87.1 0 44.2 0 0 Z M1 1 C1 42.91 1 84.82 1 128 C33.01 128 65.02 128 98 128 C98 86.09 98 44.18 98 1 C65.99 1 33.98 1 1 1 Z " fill="#232424" transform="translate(311,447)"/>
<path d="M0 0 C11.55 0 23.1 0 35 0 C35 0.33 35 0.66 35 1 C23.78 1 12.56 1 1 1 C1 6.5275 1 12.055 1 17.75 C1 24.83333333 1 31.91666667 1 39 C-3.09341499 39.02469575 -7.18680121 39.04285793 -11.28027344 39.05493164 C-12.67318477 39.0599643 -14.0660908 39.06679098 -15.45898438 39.07543945 C-17.45961246 39.08755152 -19.46027888 39.09270412 -21.4609375 39.09765625 C-22.66540527 39.10289307 -23.86987305 39.10812988 -25.11083984 39.11352539 C-28 39 -28 39 -30 38 C-30 57.8 -30 77.6 -30 98 C-20.1 98 -10.2 98 0 98 C0 99.32 0 100.64 0 102 C-11.22 102 -22.44 102 -34 102 C-34 79.56 -34 57.12 -34 34 C-22.78 34 -11.56 34 0 34 C0 22.78 0 11.56 0 0 Z " fill="#302F2F" transform="translate(716,444)"/>
<path d="M0 0 C0.33 0 0.66 0 1 0 C1 11.22 1 22.44 1 34 C2.35105145 32.87572365 2.35105145 32.87572365 2.11352539 29.94897461 C2.11336634 28.60008729 2.10767612 27.25119386 2.09765625 25.90234375 C2.0962413 25.19348526 2.09482635 24.48462677 2.09336853 23.75428772 C2.08775443 21.48198288 2.07519963 19.20977525 2.0625 16.9375 C2.05748681 15.40039204 2.05292359 13.86328255 2.04882812 12.32617188 C2.03778042 8.55074358 2.02050641 4.77538829 2 1 C2.99 0.67 3.98 0.34 5 0 C5.09898615 4.91123589 5.17152247 9.82188938 5.21972656 14.73388672 C5.23982393 16.40423702 5.26710683 18.07451713 5.30175781 19.74462891 C5.35036119 22.1476372 5.37298656 24.54971434 5.390625 26.953125 C5.41127014 27.69806213 5.43191528 28.44299927 5.45318604 29.21051025 C5.45453674 32.34189566 5.29788438 34.53473469 3.59094238 37.20080566 C-0.4001502 39.97228805 -4.16085781 39.52607676 -8.90917969 39.45410156 C-10.4169825 39.45497772 -10.4169825 39.45497772 -11.95524597 39.45587158 C-15.27780691 39.45308485 -18.59947078 39.42196404 -21.921875 39.390625 C-24.22543854 39.38316473 -26.52900842 39.37747079 -28.83258057 39.37347412 C-34.89574707 39.35820107 -40.95853033 39.31890433 -47.02154541 39.2746582 C-53.20832128 39.23374185 -59.39515908 39.21547084 -65.58203125 39.1953125 C-77.72152255 39.15241213 -89.86072941 39.08414017 -102 39 C-102 38.34 -102 37.68 -102 37 C-101.27820557 36.97494385 -100.55641113 36.9498877 -99.81274414 36.92407227 C-96.562465 36.80848698 -93.31250312 36.68559226 -90.0625 36.5625 C-88.92619141 36.52318359 -87.78988281 36.48386719 -86.61914062 36.44335938 C-85.53955078 36.40146484 -84.45996094 36.35957031 -83.34765625 36.31640625 C-81.84730835 36.26141968 -81.84730835 36.26141968 -80.31665039 36.20532227 C-78.03930812 36.25328159 -78.03930812 36.25328159 -77 35 C-74.59651714 34.90503292 -72.22189018 34.87441138 -69.81811523 34.88647461 C-69.06694427 34.88632858 -68.31577332 34.88618256 -67.5418396 34.8860321 C-65.04739541 34.88673137 -62.55302497 34.89452436 -60.05859375 34.90234375 C-58.33366436 34.90420788 -56.60873443 34.90563181 -54.88380432 34.90663147 C-50.33487497 34.91045703 -45.78597733 34.92028762 -41.23706055 34.93133545 C-35.78388372 34.94334319 -30.33069632 34.94795163 -24.87751007 34.95378876 C-16.58498462 34.96349937 -8.29252884 34.98265565 0 35 C0 23.45 0 11.9 0 0 Z " fill="#1A1919" transform="translate(784,614)"/>
<path d="M0 0 C0.66 0 1.32 0 2 0 C2 43.23 2 86.46 2 131 C33.08450726 130.92082127 33.08450726 130.92082127 64.16894531 130.81982422 C70.18115234 130.81079102 70.18115234 130.81079102 72.99578857 130.80911255 C74.96145533 130.80604153 76.92711832 130.79900769 78.89276123 130.78884888 C81.87030585 130.77422971 84.84762023 130.77218733 87.82519531 130.77294922 C88.70079731 130.765753 89.57639931 130.75855679 90.4785347 130.7511425 C91.28171505 130.7538975 92.0848954 130.75665249 92.91241455 130.75949097 C93.60929005 130.75764738 94.30616554 130.75580379 95.02415848 130.75390434 C97 131 97 131 101 133 C67.67 133 34.34 133 0 133 C0 89.11 0 45.22 0 0 Z " fill="#000001" transform="translate(309,446)"/>
<path d="M0 0 C0.99 1.485 0.99 1.485 2 3 C2.66 2.01 3.32 1.02 4 0 C4 32.34 4 64.68 4 98 C12.58 98 21.16 98 30 98 C30 88.43 30 78.86 30 69 C30.33 69 30.66 69 31 69 C31 78.9 31 88.8 31 99 C21.76 99 12.52 99 3 99 C2.505 96.03 2.505 96.03 2 93 C1.67 95.97 1.34 98.94 1 102 C0.67 102 0.34 102 0 102 C0 68.34 0 34.68 0 0 Z " fill="#292828" transform="translate(580,376)"/>
<path d="M0 0 C0.33 0 0.66 0 1 0 C1 10.89 1 21.78 1 33 C12.22 33 23.44 33 35 33 C35 44.22 35 55.44 35 67 C68.33 67 101.66 67 136 67 C136 67.33 136 67.66 136 68 C135.03755875 68.01030746 134.07511749 68.02061493 133.08351135 68.03123474 C124.03332912 68.12880019 114.98321823 68.23151783 105.9331522 68.33933926 C101.27992231 68.39461007 96.62668619 68.44803658 91.97338867 68.49731445 C87.48649883 68.54489685 82.99968788 68.59723717 78.51289177 68.65294075 C76.79721975 68.67339216 75.08152607 68.69210053 73.36581612 68.70907402 C70.97109231 68.73305665 68.57651898 68.76311912 66.18188477 68.79467773 C65.46547318 68.8004332 64.74906158 68.80618866 64.01094055 68.81211853 C60.72243051 68.58238175 60.72243051 68.58238175 58 70 C56.38916255 70.0991918 54.77404356 70.1307982 53.16015625 70.1328125 C52.17982422 70.13410156 51.19949219 70.13539063 50.18945312 70.13671875 C48.64161133 70.13091797 48.64161133 70.13091797 47.0625 70.125 C45.52045898 70.13080078 45.52045898 70.13080078 43.94726562 70.13671875 C42.96564453 70.13542969 41.98402344 70.13414062 40.97265625 70.1328125 C40.06781494 70.13168457 39.16297363 70.13055664 38.23071289 70.12939453 C36 70 36 70 34 69 C34 57.45 34 45.9 34 34 C22.78 34 11.56 34 0 34 C0 22.78 0 11.56 0 0 Z " fill="#636363" transform="translate(648,581)"/>
<path d="M0 0 C1.32 0 2.64 0 4 0 C4 9.9 4 19.8 4 30 C14.89 30 25.78 30 37 30 C37 30.66 37 31.32 37 32 C37.66 32 38.32 32 39 32 C39 44.54 39 57.08 39 70 C38.67 70 38.34 70 38 70 C37.67 57.79 37.34 45.58 37 33 C24.79 33 12.58 33 0 33 C0 22.11 0 11.22 0 0 Z " fill="#100F0F" transform="translate(445,410)"/>
<path d="M0 0 C0 10.23 0 20.46 0 31 C9.57 31 19.14 31 29 31 C29 32.32 29 33.64 29 35 C18.11 35 7.22 35 -4 35 C-4 23.78 -4 12.56 -4 1 C-2 0 -2 0 0 0 Z " fill="#212121" transform="translate(755,579)"/>
<path d="M0 0 C10.89 0 21.78 0 33 0 C33.495 1.98 33.495 1.98 34 4 C24.1 4 14.2 4 4 4 C4 13.9 4 23.8 4 34 C2.68 34 1.36 34 0 34 C0 22.78 0 11.56 0 0 Z " fill="#212121" transform="translate(751,410)"/>
<path d="M0 0 C6.27 0 12.54 0 19 0 C19 0.33 19 0.66 19 1 C14.85890746 1.72019001 10.94992159 2.05897807 6.7421875 2.03125 C5.85128418 2.02673828 4.96038086 2.02222656 4.04248047 2.01757812 C3.03145264 2.00887695 3.03145264 2.00887695 2 2 C2.00222061 3.11198257 2.00444122 4.22396515 2.00672913 5.36964417 C2.02701982 15.86007349 2.04200071 26.35049882 2.05181217 36.84094334 C2.05702593 42.23389569 2.06409622 47.62683217 2.07543945 53.01977539 C2.08632188 58.22634474 2.0922882 63.43289884 2.09487724 68.63947868 C2.09672184 70.62374041 2.10032385 72.60800133 2.10573006 74.59225655 C2.11301155 77.37605707 2.11398794 80.15979497 2.11352539 82.94360352 C2.11712067 83.76000305 2.12071594 84.57640259 2.12442017 85.4175415 C2.11611672 90.04985929 1.76774835 94.43003995 1 99 C0.67 99 0.34 99 0 99 C0 66.33 0 33.66 0 0 Z " fill="#030204" transform="translate(581,547)"/>
<path d="M0 0 C8.91 0 17.82 0 27 0 C27 0.33 27 0.66 27 1 C29.31 1.33 31.62 1.66 34 2 C34 2.33 34 2.66 34 3 C24.1 3 14.2 3 4 3 C4 12.9 4 22.8 4 33 C2.66666667 33 1.33333333 33 0 33 C0 22.11 0 11.22 0 0 Z " fill="#131313" transform="translate(717,445)"/>
<path d="M0 0 C9.24 0 18.48 0 28 0 C28.04125 4.16625 28.0825 8.3325 28.125 12.625 C28.14320801 13.92775879 28.16141602 15.23051758 28.18017578 16.57275391 C28.1851709 17.61351074 28.19016602 18.65426758 28.1953125 19.7265625 C28.21102295 21.31331787 28.21102295 21.31331787 28.22705078 22.93212891 C27.98270857 26.23363888 27.16882977 28.91412763 26 32 C25.67 32 25.34 32 25 32 C24.505 18.14 24.505 18.14 24 4 C9.15 3.505 9.15 3.505 -6 3 C-6 2.67 -6 2.34 -6 2 C-4.02 1.67 -2.04 1.34 0 1 C0 0.67 0 0.34 0 0 Z " fill="#151515" transform="translate(620,581)"/>
<path d="M0 0 C0.33 0 0.66 0 1 0 C1 11.22 1 22.44 1 34 C2.35105145 32.87572365 2.35105145 32.87572365 2.11352539 29.94897461 C2.11336634 28.60008729 2.10767612 27.25119386 2.09765625 25.90234375 C2.0962413 25.19348526 2.09482635 24.48462677 2.09336853 23.75428772 C2.08775443 21.48198288 2.07519963 19.20977525 2.0625 16.9375 C2.05748681 15.40039204 2.05292359 13.86328255 2.04882812 12.32617188 C2.03778042 8.55074358 2.02050641 4.77538829 2 1 C2.99 0.67 3.98 0.34 5 0 C5 11.55 5 23.1 5 35 C3.35 35 1.7 35 0 35 C0 23.45 0 11.9 0 0 Z " fill="#2C2D2D" transform="translate(784,614)"/>
<path d="M0 0 C10.89 0 21.78 0 33 0 C33 0.66 33 1.32 33 2 C22.77 2 12.54 2 2 2 C2 11.57 2 21.14 2 31 C1.34 31.33 0.68 31.66 0 32 C0 21.44 0 10.88 0 0 Z " fill="#1D1C1B" transform="translate(412,617)"/>
<path d="M0 0 C0.99 0.495 0.99 0.495 2 1 C2 10.57 2 20.14 2 30 C11.9 30 21.8 30 32 30 C32 30.66 32 31.32 32 32 C21.44 32 10.88 32 0 32 C0 21.44 0 10.88 0 0 Z " fill="#212121" transform="translate(719,545)"/>
</svg>
