<?xml version="1.0" encoding="UTF-8"?>
<svg version="1.1" xmlns="http://www.w3.org/2000/svg" width="1024" height="1024">
<path d="M0 0 C337.92 0 675.84 0 1024 0 C1024 337.92 1024 675.84 1024 1024 C686.08 1024 348.16 1024 0 1024 C0 686.08 0 348.16 0 0 Z " fill="#070707" transform="translate(0,0)"/>
<path d="M0 0 C60.06 0 120.12 0 182 0 C182 26.4 182 52.8 182 80 C149.99 80 117.98 80 85 80 C85 148.64 85 217.28 85 288 C117.01 288 149.02 288 182 288 C182 316.38 182 344.76 182 374 C121.94 374 61.88 374 0 374 C0 250.58 0 127.16 0 0 Z " fill="#FEFEFE" transform="translate(272,325)"/>
<path d="M0 0 C29.7 0 59.4 0 90 0 C101.875 23.8125 101.875 23.8125 105.55419922 31.19848633 C106.55419924 33.2014159 107.55435269 35.20426887 108.5546875 37.20703125 C109.28764038 38.68061096 109.28764038 38.68061096 110.03540039 40.18395996 C113.15304013 46.41998352 116.36605336 52.59862372 119.63037109 58.75854492 C125.14866632 69.19120227 130.42753225 79.7395965 135.68929291 90.30342102 C137.40361285 93.74506118 139.12059491 97.18536239 140.8381958 100.62536621 C144.47774751 107.91577265 148.11412647 115.20775865 151.75 122.5 C155.98276644 130.98932559 160.21694917 139.47793852 164.4544754 147.96488953 C166.1366536 151.33567264 167.81639824 154.70766075 169.49603271 158.07971191 C170.5346707 160.16062272 171.57342209 162.24147693 172.61230469 164.32226562 C173.07061172 165.24404602 173.52891876 166.16582642 174.00111389 167.11553955 C176.80867925 172.73112035 179.77317422 178.21817458 182.91582108 183.65442657 C184 186 184 186 183.6015625 189.22265625 C183.07304688 190.13917969 182.54453125 191.05570313 182 192 C181.45085937 193.17433594 180.90171875 194.34867188 180.3359375 195.55859375 C179.68694642 196.85390516 179.03306626 198.14677545 178.375 199.4375 C178.02308594 200.13488281 177.67117188 200.83226562 177.30859375 201.55078125 C174.63309856 206.82560095 171.86002858 212.04511415 169.05641365 217.25265217 C166.78729938 221.48264124 164.59580096 225.74651256 162.46044922 230.0456543 C161.75454238 231.46202867 161.04862977 232.87840016 160.3427124 234.29476929 C159.77693607 235.43137308 159.77693607 235.43137308 159.19972992 236.59093857 C157.49140266 240.02126505 155.77914955 243.4496274 154.0670948 246.87809467 C152.62003537 249.77590191 151.17340945 252.67392527 149.72683716 255.57197571 C145.92047132 263.19696107 142.11210581 270.8209474 138.30349922 278.44481373 C135.42701735 284.20299438 132.55128896 289.96154881 129.67724609 295.72094727 C126.86874942 301.34891307 124.05822205 306.97586067 121.24636459 312.60214806 C120.18771669 314.72126715 119.12976307 316.84073326 118.07257462 318.96058083 C112.7134714 329.70543787 107.32719901 340.42850892 101.66623116 351.01830006 C97.62291538 358.60996963 93.85264168 366.29471664 90 374 C60.63 374 31.26 374 1 374 C2.65616136 369.03151591 4.58534988 364.79953716 7.0625 360.25 C12.79782265 349.54638873 18.19135553 338.67750814 23.58227539 327.79785156 C27.18366296 320.54434291 30.85753148 313.33978368 34.65625 306.1875 C41.34196391 293.57925458 47.64701784 280.77788806 54 268 C61.47334495 252.96870244 68.99220906 237.97369584 76.86480713 223.1463623 C79.84366376 217.51409862 82.76202646 211.85116723 85.64526367 206.16943359 C86.35429803 204.77860348 87.06904232 203.39067271 87.78881836 202.00537109 C88.85569825 199.95023598 89.90422708 197.88664483 90.94921875 195.8203125 C91.43487556 194.89848679 91.43487556 194.89848679 91.93034363 193.95803833 C93.2278356 191.35090054 94.01805544 189.40717183 93.88793945 186.47290039 C92.77198175 183.36497199 91.38120463 180.53801564 89.84375 177.61328125 C89.51362915 176.97948044 89.1835083 176.34567963 88.84338379 175.69267273 C88.11816327 174.30087819 87.39030212 172.91045723 86.66015625 171.52124023 C84.6230871 167.64300695 82.60818989 163.75330501 80.59375 159.86328125 C80.15514648 159.01686066 79.71654297 158.17044006 79.26464844 157.29837036 C72.84360447 144.87143121 66.63915531 132.33427396 60.41381836 119.8085022 C59.37846302 117.72534695 58.3422929 115.64259644 57.30529785 113.56025696 C56.36319571 111.66837772 55.42278008 109.77565684 54.48474121 107.88175964 C51.48487135 101.85978526 48.37438181 95.90192719 45.22875977 89.95532227 C40.19046712 80.42178178 35.33675559 70.80291018 30.52734375 61.15234375 C29.6698197 59.43542257 28.81211424 57.71859199 27.95423889 56.00184631 C25.73194236 51.55349484 23.51205256 47.10394687 21.29272461 42.65411377 C19.01760836 38.09353238 16.74014259 33.5341246 14.46289062 28.97460938 C10.48462819 21.00859135 6.50832009 13.04160042 2.53355408 5.07383728 C1.68962029 3.38226658 0.84541536 1.69083072 0 0 Z " fill="#FEFEFE" transform="translate(632,325)"/>
<path d="M0 0 C0.66 0.66 1.32 1.32 2 2 C4.73898942 2.21758829 7.37988833 2.31141632 10.12158203 2.31884766 C10.96068115 2.32889328 11.79978027 2.3389389 12.66430664 2.34928894 C15.44546811 2.38024786 18.22653278 2.3971912 21.0078125 2.4140625 C22.93310385 2.43276394 24.85838691 2.45233657 26.78366089 2.4727478 C31.85694506 2.52418323 36.93025585 2.56374774 42.00366211 2.60089111 C47.17829023 2.6408594 52.35280659 2.69198438 57.52734375 2.7421875 C67.68481745 2.83908182 77.84235409 2.92344321 88 3 C88 3.33 88 3.66 88 4 C58.63 4 29.26 4 -1 4 C-0.67 2.68 -0.34 1.36 0 0 Z " fill="#F1F2F1" transform="translate(634,695)"/>
<path d="M0 0 C0.66 0 1.32 0 2 0 C2.46148438 0.92296875 2.92296875 1.8459375 3.3984375 2.796875 C3.70845703 3.41675293 4.01847656 4.03663086 4.33789062 4.67529297 C5.03762871 6.07509859 5.73683533 7.47516998 6.43554688 8.87548828 C8.53051706 13.07182691 10.63719401 17.26187016 12.7578125 21.4453125 C13.21365723 22.34797852 13.66950195 23.25064453 14.13916016 24.18066406 C15.03930642 25.9628697 15.94257936 27.74349992 16.84912109 29.52246094 C17.4652124 30.74497559 17.4652124 30.74497559 18.09375 31.9921875 C18.46177734 32.71776855 18.82980469 33.44334961 19.20898438 34.19091797 C20 36 20 36 20 38 C19.34 38 18.68 38 18 38 C15.43143822 32.91221347 12.86808116 27.82185221 10.30957031 22.72900391 C9.4379604 20.99585863 8.56491767 19.26343316 7.69042969 17.53173828 C6.43570054 15.0464641 5.18610074 12.55867004 3.9375 10.0703125 C3.34690796 8.90461227 3.34690796 8.90461227 2.74438477 7.71536255 C0 2.22774341 0 2.22774341 0 0 Z " fill="#171717" transform="translate(728,337)"/>
<path d="M0 0 C0.66 0 1.32 0 2 0 C7.859375 11.71875 7.859375 11.71875 8.91992188 13.84765625 C9.65775139 15.31797836 10.40425624 16.78397078 11.15820312 18.24609375 C14 23.78935185 14 23.78935185 14 26 C13.34 26 12.68 26 12 26 C9.99354751 22.04490505 7.99593864 18.08540979 6 14.125 C5.42765625 12.99707031 4.8553125 11.86914062 4.265625 10.70703125 C3.72421875 9.63066406 3.1828125 8.55429687 2.625 7.4453125 C2.12226562 6.45031738 1.61953125 5.45532227 1.1015625 4.43017578 C0 2 0 2 0 0 Z " fill="#181818" transform="translate(797,474)"/>
<path d="M0 0 C3 1 3 1 4.16796875 2.99609375 C4.50441406 3.80175781 4.84085938 4.60742188 5.1875 5.4375 C5.53167969 6.24058594 5.87585938 7.04367187 6.23046875 7.87109375 C7 10 7 10 7 12 C7.66 12 8.32 12 9 12 C10.32 15.3 11.64 18.6 13 22 C12.01 22 11.02 22 10 22 C8.32686677 18.71158124 6.66260393 15.41875318 5 12.125 C4.52304687 11.18785156 4.04609375 10.25070312 3.5546875 9.28515625 C3.10351562 8.38925781 2.65234375 7.49335938 2.1875 6.5703125 C1.76855469 5.74289551 1.34960938 4.91547852 0.91796875 4.06298828 C0 2 0 2 0 0 Z " fill="#0F0F0F" transform="translate(786,452)"/>
<path d="M0 0 C0.66 0.66 1.32 1.32 2 2 C4.89223503 2.46396693 4.89223503 2.46396693 8.125 2.625 C9.76855469 2.73714844 9.76855469 2.73714844 11.4453125 2.8515625 C12.28835938 2.90054688 13.13140625 2.94953125 14 3 C14 3.33 14 3.66 14 4 C9.05 4 4.1 4 -1 4 C-0.67 2.68 -0.34 1.36 0 0 Z " fill="#E9EAE9" transform="translate(634,695)"/>
<path d="M0 0 C2.32472205 2.85306797 3.7508258 5.54074837 5 9 C3.68 8.67 2.36 8.34 1 8 C0.34 5.69 -0.32 3.38 -1 1 C-0.67 0.67 -0.34 0.34 0 0 Z " fill="#101110" transform="translate(721,501)"/>
<path d="M0 0 C0.66 0 1.32 0 2 0 C2.33 1.32 2.66 2.64 3 4 C3.66 4 4.32 4 5 4 C5 5.32 5 6.64 5 8 C4.34 8 3.68 8 3 8 C0 2.25 0 2.25 0 0 Z " fill="#0E0E0E" transform="translate(723,327)"/>
</svg>
